<svg id="a" height="512" viewBox="0 0 60 60" width="512" xmlns="http://www.w3.org/2000/svg"><path d="m46.59 54.08 9.049-1.808c.669-.134 1.011-.884.672-1.477l-2.896-5.067c-.241-.421-.144-.954.228-1.264l4.434-3.695c.48-.4.48-1.137 0-1.536l-4.237-3.531c-.452-.376-.483-1.06-.067-1.475l4.3-4.3c.466-.466.362-1.248-.211-1.575l-4.902-2.801c-.514-.294-.662-.968-.318-1.449l3.533-4.946c.402-.562.125-1.353-.539-1.543l-4.977-1.421-.47-1.7.629-5.042c.087-.697-.553-1.264-1.235-1.094l-5.646 1.412c-.523.131-1.056-.177-1.204-.695l-1.358-4.753c-.186-.651-.953-.933-1.516-.557l-4.112 2.742c-.425.283-.996.201-1.323-.192l-3.657-4.388c-.4-.48-1.137-.48-1.536 0l-3.657 4.388c-.327.393-.898.475-1.323.192l-4.112-2.742c-.564-.376-1.33-.094-1.516.557l-1.358 4.753c-.148.519-.681.826-1.204.695l-5.646-1.412c-.682-.17-1.322.397-1.235 1.094l.629 5.042-.47 1.7-4.977 1.421c-.665.19-.941.98-.539 1.543l3.533 4.946c.344.482.197 1.156-.318 1.449l-4.902 2.801c-.572.327-.677 1.109-.211 1.575l4.3 4.3c.416.416.385 1.099-.067 1.475l-4.237 3.531c-.48.4-.48 1.137 0 1.536l4.434 3.695c.373.31.469.843.228 1.264l-2.896 5.067c-.339.593.003 1.343.672 1.477l9.049 1.808z" fill="#a56a43"/><g fill="#fac176"><path d="m30 59h10.208c9.188 0 8.167-16 7.146-23-1.011-6.93-3.063-14-8.167-14s-6.125 2-9.188 2-4.083-2-9.188-2-7.156 7.07-8.167 14c-1.021 7-2.042 23 7.146 23h10.208z"/><path d="m18 18s-5.834-9.414-8-4c-2 5 0 8 3 8z"/><path d="m42 18s5.834-9.414 8-4c2 5 0 8-3 8z"/></g><path d="m33 32c0 1-1.343 3-3 3s-3-2-3-3 1.343-1 3-1 3 0 3 1z" fill="#3f5c6c"/><circle cx="38" cy="29" fill="#3f5c6c" r="3"/><circle cx="22" cy="29" fill="#3f5c6c" r="3"/><path d="m30 20c-.553 0-1-.448-1-1v-6c0-.552.447-1 1-1s1 .448 1 1v6c0 .552-.447 1-1 1z" fill="#805333"/><path d="m33.999 19c-.15 0-.303-.034-.446-.105-.494-.247-.694-.848-.447-1.342l1-2c.247-.494.849-.694 1.342-.447s.694.848.447 1.342l-1 2c-.176.351-.528.553-.896.553z" fill="#805333"/><path d="m26.001 19c-.367 0-.72-.202-.896-.553l-1-2c-.247-.494-.047-1.095.447-1.342.495-.247 1.094-.047 1.342.447l1 2c.247.494.047 1.095-.447 1.342-.144.072-.296.105-.446.105z" fill="#805333"/><path d="m23 54h2c1.656 0 3 1.344 3 3v1c0 .552-.448 1-1 1h-6c-.552 0-1-.448-1-1v-1c0-1.656 1.344-3 3-3z" fill="#cb8252"/><path d="m35 54h2c1.656 0 3 1.344 3 3v1c0 .552-.448 1-1 1h-6c-.552 0-1-.448-1-1v-1c0-1.656 1.344-3 3-3z" fill="#cb8252"/><path d="m25 49c-1.068 0-2.072-.416-2.828-1.172l-4-4c-.391-.391-.391-1.023 0-1.414s1.023-.391 1.414 0l4 4c.756.756 2.072.756 2.828 0 .378-.378.586-.88.586-1.414s-.208-1.036-.586-1.414l-4-4c-.391-.391-.391-1.023 0-1.414s1.023-.391 1.414 0l4 4c.756.755 1.172 1.76 1.172 2.828s-.416 2.073-1.172 2.828c-.756.756-1.76 1.172-2.828 1.172z" fill="#f18d46"/><path d="m35 49c-1.068 0-2.072-.416-2.828-1.172-.756-.755-1.172-1.76-1.172-2.828s.416-2.073 1.172-2.828l4-4c.391-.391 1.023-.391 1.414 0s.391 1.023 0 1.414l-4 4c-.378.378-.586.88-.586 1.414s.208 1.036.586 1.414c.756.756 2.072.756 2.828 0l4-4c.391-.391 1.023-.391 1.414 0s.391 1.023 0 1.414l-4 4c-.756.756-1.76 1.172-2.828 1.172z" fill="#f18d46"/><circle cx="21" cy="28" fill="#ecf0f1" r="1"/><circle cx="37" cy="28" fill="#ecf0f1" r="1"/></svg>